<svg width="300" height="50" viewBox="0 0 461 26" fill="none" xmlns="http://www.w3.org/2000/svg">
<path d="M53.5874 22.785L39.3652 17.3092H39.8731C43.8943 17.3092 47.3017 16.4885 50.0954 14.847C52.9314 13.2055 54.3493 11.2332 54.3493 8.93024C54.3493 6.60274 52.9314 4.63049 50.0954 3.01349C47.3017 1.37199 43.8943 0.551239 39.8731 0.551239H0V23.6303C0 24.3163 0.5926 24.6593 1.77779 24.6593C2.96298 24.6593 3.55556 24.3163 3.55556 23.6303V17.3092H33.016L51.6192 24.4755C51.9155 24.598 52.2329 24.6593 52.5715 24.6593C53.2065 24.6593 53.6933 24.5 54.0319 24.1815C54.2435 24.01 54.3493 23.8263 54.3493 23.6303C54.3493 23.2628 54.0954 22.981 53.5874 22.785ZM3.55556 2.60924H39.8731C42.8784 2.60924 45.4393 3.23399 47.5557 4.48349C49.7144 5.70849 50.7938 7.19074 50.7938 8.93024C50.7938 10.6697 49.7144 12.1642 47.5557 13.4137C45.4393 14.6387 42.8784 15.2512 39.8731 15.2512H3.55556V2.60924Z" fill="#46AAEB"/>
<path d="M126.696 22.9688L92.5369 0L59.4575 22.9688C59.2035 23.1403 59.0765 23.3485 59.0765 23.5935C59.0765 24.304 59.6903 24.6593 60.9178 24.6593C61.4257 24.6593 61.849 24.5368 62.1876 24.2918L72.2194 17.3093H113.616L124.029 24.2918C124.41 24.5368 124.876 24.6593 125.426 24.6593C126.569 24.6593 127.14 24.3285 127.14 23.667C127.14 23.3975 126.992 23.1648 126.696 22.9688ZM75.2035 15.2513L92.6004 3.1605L110.632 15.2513H75.2035Z" fill="#52B1ED"/>
<path d="M172.701 1.24949C170.415 0.783989 168.108 0.551239 165.78 0.551239H132.256V24.6593H165.78C168.108 24.6593 170.415 24.4265 172.701 23.961C176.849 23.128 180.193 21.6703 182.732 19.5878C185.315 17.4808 186.606 15.1532 186.606 12.6052C186.606 10.0572 185.315 7.74199 182.732 5.65949C180.193 3.55249 176.849 2.08249 172.701 1.24949ZM171.558 22.05C169.78 22.4175 167.854 22.6013 165.78 22.6013H135.812V2.60924H165.78C167.854 2.60924 169.78 2.79299 171.558 3.16049C174.986 3.87099 177.759 5.09599 179.875 6.83549C181.992 8.57499 183.05 10.4982 183.05 12.6052C183.05 14.7122 181.992 16.6355 179.875 18.375C177.759 20.1145 174.986 21.3395 171.558 22.05Z" fill="#5FB8EE"/>
<path d="M191.538 1.80073V23.8507C191.538 24.5122 192.11 24.843 193.252 24.843C194.438 24.843 195.03 24.5122 195.03 23.8507V1.80073C195.03 1.11473 194.438 0.771729 193.252 0.771729C192.11 0.771729 191.538 1.11473 191.538 1.80073Z" fill="#6BBEF0"/>
<path d="M228.074 0.146973C220.37 0.146973 213.767 1.35972 208.264 3.78522C202.635 6.25972 199.82 9.27322 199.82 12.8257C199.82 16.3782 202.635 19.3917 208.264 21.8662C213.725 24.2672 220.328 25.4677 228.074 25.4677C235.82 25.4677 242.402 24.2672 247.82 21.8662C253.45 19.3672 256.264 16.3537 256.264 12.8257C256.264 9.29772 253.45 6.28422 247.82 3.78522C242.317 1.35972 235.735 0.146973 228.074 0.146973ZM252.772 12.8257C252.772 15.7412 250.36 18.2402 245.534 20.3227C240.709 22.3807 234.889 23.4097 228.074 23.4097C221.259 23.4097 215.439 22.3807 210.613 20.3227C205.788 18.2402 203.375 15.7412 203.375 12.8257C203.375 9.88572 205.788 7.38672 210.613 5.32872C215.439 3.24622 221.259 2.20497 228.074 2.20497C234.889 2.20497 240.709 3.24622 245.534 5.32872C250.36 7.38672 252.772 9.88572 252.772 12.8257Z" fill="#77C5F2"/>
<path d="M277.972 1.80073V23.8507C277.972 24.5122 278.543 24.843 279.686 24.843C280.871 24.843 281.464 24.5122 281.464 23.8507V1.80073C281.464 1.11473 280.871 0.771729 279.686 0.771729C278.543 0.771729 277.972 1.11473 277.972 1.80073Z" fill="#83CCF3"/>
<path d="M327.587 1.24949C325.301 0.783989 322.994 0.551239 320.666 0.551239H287.142V24.6593H320.666C322.994 24.6593 325.301 24.4265 327.587 23.961C331.735 23.128 335.079 21.6703 337.619 19.5878C340.201 17.4808 341.492 15.1532 341.492 12.6052C341.492 10.0572 340.201 7.74199 337.619 5.65949C335.079 3.55249 331.735 2.08249 327.587 1.24949ZM326.444 22.05C324.666 22.4175 322.74 22.6013 320.666 22.6013H290.698V2.60924H320.666C322.74 2.60924 324.666 2.79299 326.444 3.16049C329.873 3.87099 332.645 5.09599 334.762 6.83549C336.878 8.57499 337.936 10.4982 337.936 12.6052C337.936 14.7122 336.878 16.6355 334.762 18.375C332.645 20.1145 329.873 21.3395 326.444 22.05Z" fill="#90D3F5"/>
<path d="M398.361 13.6342C399.546 13.6342 400.139 13.2912 400.139 12.6052C400.139 11.9192 399.546 11.5762 398.361 11.5762H349.345V2.60924H398.361C399.546 2.60924 400.139 2.26624 400.139 1.58024C400.139 0.894239 399.546 0.551239 398.361 0.551239H345.789V24.6593H398.361C399.546 24.6593 400.139 24.3163 400.139 23.6303C400.139 22.9443 399.546 22.6013 398.361 22.6013H349.345V13.6342H398.361Z" fill="#9CD9F6"/>
<path d="M432.563 0.146973C424.86 0.146973 418.256 1.35972 412.754 3.78522C407.124 6.25972 404.309 9.27322 404.309 12.8257C404.309 16.3782 407.124 19.3917 412.754 21.8662C418.214 24.2672 424.817 25.4677 432.563 25.4677C440.309 25.4677 446.891 24.2672 452.309 21.8662C457.939 19.3672 460.754 16.3537 460.754 12.8257C460.754 9.29772 457.939 6.28422 452.309 3.78522C446.807 1.35972 440.225 0.146973 432.563 0.146973ZM457.262 12.8257C457.262 15.7412 454.849 18.2402 450.024 20.3227C445.198 22.3807 439.378 23.4097 432.563 23.4097C425.749 23.4097 419.928 22.3807 415.103 20.3227C410.278 18.2402 407.865 15.7412 407.865 12.8257C407.865 9.88572 410.278 7.38672 415.103 5.32872C419.928 3.24622 425.749 2.20497 432.563 2.20497C439.378 2.20497 445.198 3.24622 450.024 5.32872C454.849 7.38672 457.262 9.88572 457.262 12.8257Z" fill="#A8E0F8"/>
</svg>
